<mxfile host="Electron" agent="Mozilla/5.0 (Macintosh; Intel Mac OS X 10_15_7) AppleWebKit/537.36 (KHTML, like Gecko) draw.io/25.0.2 Chrome/128.0.6613.186 Electron/32.2.5 Safari/537.36" version="25.0.2">
  <diagram id="C5RBs43oDa-KdzZeNtuy" name="Page-1">
    <mxGraphModel dx="1114" dy="768" grid="1" gridSize="10" guides="1" tooltips="1" connect="1" arrows="1" fold="1" page="1" pageScale="1" pageWidth="827" pageHeight="1169" math="0" shadow="0">
      <root>
        <mxCell id="WIyWlLk6GJQsqaUBKTNV-0" />
        <mxCell id="WIyWlLk6GJQsqaUBKTNV-1" parent="WIyWlLk6GJQsqaUBKTNV-0" />
        <mxCell id="A29nZZCQALK415ZoHqxF-0" value="users" style="swimlane;whiteSpace=wrap;html=1;startSize=30;" parent="WIyWlLk6GJQsqaUBKTNV-1" vertex="1">
          <mxGeometry x="29" y="70" width="200" height="210" as="geometry" />
        </mxCell>
        <mxCell id="A29nZZCQALK415ZoHqxF-13" value="&lt;div&gt;email&lt;/div&gt;" style="whiteSpace=wrap;html=1;gradientColor=none;" parent="A29nZZCQALK415ZoHqxF-0" vertex="1">
          <mxGeometry y="60" width="200" height="30" as="geometry" />
        </mxCell>
        <mxCell id="A29nZZCQALK415ZoHqxF-14" value="&lt;div&gt;password&lt;/div&gt;" style="whiteSpace=wrap;html=1;gradientColor=none;" parent="A29nZZCQALK415ZoHqxF-0" vertex="1">
          <mxGeometry y="90" width="200" height="30" as="geometry" />
        </mxCell>
        <mxCell id="A29nZZCQALK415ZoHqxF-15" value="&lt;div&gt;&lt;span style=&quot;background-color: initial;&quot;&gt;lastname&lt;/span&gt;&lt;/div&gt;" style="whiteSpace=wrap;html=1;gradientColor=none;" parent="A29nZZCQALK415ZoHqxF-0" vertex="1">
          <mxGeometry y="120" width="200" height="30" as="geometry" />
        </mxCell>
        <mxCell id="A29nZZCQALK415ZoHqxF-16" value="firstname" style="whiteSpace=wrap;html=1;gradientColor=none;" parent="A29nZZCQALK415ZoHqxF-0" vertex="1">
          <mxGeometry y="150" width="200" height="30" as="geometry" />
        </mxCell>
        <mxCell id="A29nZZCQALK415ZoHqxF-17" value="&lt;div&gt;&lt;span style=&quot;background-color: initial;&quot;&gt;phone_number&lt;/span&gt;&lt;/div&gt;" style="whiteSpace=wrap;html=1;gradientColor=none;" parent="A29nZZCQALK415ZoHqxF-0" vertex="1">
          <mxGeometry y="180" width="200" height="30" as="geometry" />
        </mxCell>
        <mxCell id="A29nZZCQALK415ZoHqxF-18" value="role" style="whiteSpace=wrap;html=1;gradientColor=none;" parent="A29nZZCQALK415ZoHqxF-0" vertex="1">
          <mxGeometry y="210" width="200" height="30" as="geometry" />
        </mxCell>
        <mxCell id="LvhPInU438T6JlCGGzXY-3" value="&lt;div&gt;id&lt;/div&gt;" style="whiteSpace=wrap;html=1;gradientColor=none;" parent="A29nZZCQALK415ZoHqxF-0" vertex="1">
          <mxGeometry y="30" width="200" height="30" as="geometry" />
        </mxCell>
        <mxCell id="A29nZZCQALK415ZoHqxF-19" value="accommodations" style="swimlane;whiteSpace=wrap;html=1;startSize=30;" parent="WIyWlLk6GJQsqaUBKTNV-1" vertex="1">
          <mxGeometry x="280" y="70" width="200" height="180" as="geometry" />
        </mxCell>
        <mxCell id="A29nZZCQALK415ZoHqxF-21" value="&lt;div&gt;title&lt;/div&gt;" style="whiteSpace=wrap;html=1;gradientColor=none;" parent="A29nZZCQALK415ZoHqxF-19" vertex="1">
          <mxGeometry y="60" width="200" height="30" as="geometry" />
        </mxCell>
        <mxCell id="A29nZZCQALK415ZoHqxF-23" value="&lt;div&gt;&lt;span style=&quot;background-color: initial;&quot;&gt;price&lt;/span&gt;&lt;/div&gt;" style="whiteSpace=wrap;html=1;gradientColor=none;" parent="A29nZZCQALK415ZoHqxF-19" vertex="1">
          <mxGeometry y="90" width="200" height="30" as="geometry" />
        </mxCell>
        <mxCell id="A29nZZCQALK415ZoHqxF-25" value="&lt;div&gt;&lt;span style=&quot;background-color: initial;&quot;&gt;surface&lt;/span&gt;&lt;/div&gt;" style="whiteSpace=wrap;html=1;gradientColor=none;" parent="A29nZZCQALK415ZoHqxF-19" vertex="1">
          <mxGeometry y="120" width="200" height="30" as="geometry" />
        </mxCell>
        <mxCell id="A29nZZCQALK415ZoHqxF-26" value="description" style="whiteSpace=wrap;html=1;gradientColor=none;" parent="A29nZZCQALK415ZoHqxF-19" vertex="1">
          <mxGeometry y="150" width="200" height="30" as="geometry" />
        </mxCell>
        <mxCell id="A29nZZCQALK415ZoHqxF-28" value="capacity" style="whiteSpace=wrap;html=1;gradientColor=none;" parent="A29nZZCQALK415ZoHqxF-19" vertex="1">
          <mxGeometry y="180" width="200" height="30" as="geometry" />
        </mxCell>
        <mxCell id="LvhPInU438T6JlCGGzXY-4" value="&lt;div&gt;id&lt;/div&gt;" style="whiteSpace=wrap;html=1;gradientColor=none;" parent="A29nZZCQALK415ZoHqxF-19" vertex="1">
          <mxGeometry y="30" width="200" height="30" as="geometry" />
        </mxCell>
        <mxCell id="A29nZZCQALK415ZoHqxF-30" value="reservation" style="swimlane;whiteSpace=wrap;html=1;startSize=30;" parent="WIyWlLk6GJQsqaUBKTNV-1" vertex="1">
          <mxGeometry x="599" y="70" width="200" height="120" as="geometry" />
        </mxCell>
        <mxCell id="LvhPInU438T6JlCGGzXY-0" value="date_from" style="whiteSpace=wrap;html=1;gradientColor=none;" parent="A29nZZCQALK415ZoHqxF-30" vertex="1">
          <mxGeometry y="60" width="200" height="30" as="geometry" />
        </mxCell>
        <mxCell id="LvhPInU438T6JlCGGzXY-1" value="date_to" style="whiteSpace=wrap;html=1;gradientColor=none;" parent="A29nZZCQALK415ZoHqxF-30" vertex="1">
          <mxGeometry y="90" width="200" height="30" as="geometry" />
        </mxCell>
        <mxCell id="LvhPInU438T6JlCGGzXY-5" value="&lt;div&gt;id&lt;/div&gt;" style="whiteSpace=wrap;html=1;gradientColor=none;" parent="A29nZZCQALK415ZoHqxF-30" vertex="1">
          <mxGeometry y="30" width="200" height="30" as="geometry" />
        </mxCell>
        <mxCell id="A29nZZCQALK415ZoHqxF-52" value="equipments" style="swimlane;whiteSpace=wrap;html=1;startSize=30;" parent="WIyWlLk6GJQsqaUBKTNV-1" vertex="1">
          <mxGeometry x="10" y="380" width="200" height="60" as="geometry" />
        </mxCell>
        <mxCell id="A29nZZCQALK415ZoHqxF-54" value="&lt;div&gt;id&lt;/div&gt;" style="whiteSpace=wrap;html=1;gradientColor=none;" parent="A29nZZCQALK415ZoHqxF-52" vertex="1">
          <mxGeometry y="30" width="200" height="30" as="geometry" />
        </mxCell>
        <mxCell id="A29nZZCQALK415ZoHqxF-60" value="accommodation_types" style="swimlane;whiteSpace=wrap;html=1;startSize=30;" parent="WIyWlLk6GJQsqaUBKTNV-1" vertex="1">
          <mxGeometry x="280" y="430" width="200" height="60" as="geometry" />
        </mxCell>
        <mxCell id="A29nZZCQALK415ZoHqxF-62" value="&lt;div&gt;id&lt;/div&gt;" style="whiteSpace=wrap;html=1;gradientColor=none;" parent="A29nZZCQALK415ZoHqxF-60" vertex="1">
          <mxGeometry y="30" width="200" height="30" as="geometry" />
        </mxCell>
        <mxCell id="A29nZZCQALK415ZoHqxF-66" value="addresses" style="swimlane;whiteSpace=wrap;html=1;startSize=35;" parent="WIyWlLk6GJQsqaUBKTNV-1" vertex="1">
          <mxGeometry x="560" y="435" width="200" height="155" as="geometry" />
        </mxCell>
        <mxCell id="T766gROKR6Gjj-hQIjyO-1" value="&lt;div&gt;street&lt;/div&gt;" style="whiteSpace=wrap;html=1;gradientColor=none;" vertex="1" parent="A29nZZCQALK415ZoHqxF-66">
          <mxGeometry y="35" width="200" height="30" as="geometry" />
        </mxCell>
        <mxCell id="T766gROKR6Gjj-hQIjyO-2" value="&lt;div&gt;city&lt;/div&gt;" style="whiteSpace=wrap;html=1;gradientColor=none;" vertex="1" parent="A29nZZCQALK415ZoHqxF-66">
          <mxGeometry y="65" width="200" height="30" as="geometry" />
        </mxCell>
        <mxCell id="T766gROKR6Gjj-hQIjyO-3" value="&lt;div&gt;country&lt;/div&gt;" style="whiteSpace=wrap;html=1;gradientColor=none;" vertex="1" parent="A29nZZCQALK415ZoHqxF-66">
          <mxGeometry y="95" width="200" height="30" as="geometry" />
        </mxCell>
        <mxCell id="T766gROKR6Gjj-hQIjyO-4" value="&lt;div&gt;number_street&lt;/div&gt;" style="whiteSpace=wrap;html=1;gradientColor=none;" vertex="1" parent="A29nZZCQALK415ZoHqxF-66">
          <mxGeometry y="125" width="200" height="30" as="geometry" />
        </mxCell>
        <mxCell id="A29nZZCQALK415ZoHqxF-72" value="" style="endArrow=none;html=1;rounded=0;entryX=0.5;entryY=0;entryDx=0;entryDy=0;" parent="WIyWlLk6GJQsqaUBKTNV-1" target="A29nZZCQALK415ZoHqxF-30" edge="1">
          <mxGeometry width="50" height="50" relative="1" as="geometry">
            <mxPoint x="130" y="70" as="sourcePoint" />
            <mxPoint x="599" y="205" as="targetPoint" />
            <Array as="points">
              <mxPoint x="130" y="10" />
              <mxPoint x="260" y="10" />
              <mxPoint x="560" y="10" />
              <mxPoint x="700" y="10" />
            </Array>
          </mxGeometry>
        </mxCell>
        <mxCell id="A29nZZCQALK415ZoHqxF-74" value="" style="endArrow=none;html=1;rounded=0;entryX=0.25;entryY=0;entryDx=0;entryDy=0;exitX=0.65;exitY=0;exitDx=0;exitDy=0;exitPerimeter=0;" parent="WIyWlLk6GJQsqaUBKTNV-1" source="A29nZZCQALK415ZoHqxF-19" target="A29nZZCQALK415ZoHqxF-30" edge="1">
          <mxGeometry width="50" height="50" relative="1" as="geometry">
            <mxPoint x="430" y="50" as="sourcePoint" />
            <mxPoint x="599" y="235" as="targetPoint" />
            <Array as="points">
              <mxPoint x="410" y="40" />
              <mxPoint x="650" y="40" />
            </Array>
          </mxGeometry>
        </mxCell>
        <mxCell id="A29nZZCQALK415ZoHqxF-75" value="" style="endArrow=none;html=1;rounded=0;exitX=0.059;exitY=-0.024;exitDx=0;exitDy=0;entryX=0.5;entryY=0;entryDx=0;entryDy=0;exitPerimeter=0;" parent="WIyWlLk6GJQsqaUBKTNV-1" source="A29nZZCQALK415ZoHqxF-89" target="A29nZZCQALK415ZoHqxF-66" edge="1">
          <mxGeometry width="50" height="50" relative="1" as="geometry">
            <mxPoint x="480" y="175" as="sourcePoint" />
            <mxPoint x="560" y="480" as="targetPoint" />
            <Array as="points">
              <mxPoint x="520" y="80" />
              <mxPoint x="520" y="280" />
              <mxPoint x="660" y="280" />
              <mxPoint x="660" y="400" />
            </Array>
          </mxGeometry>
        </mxCell>
        <mxCell id="A29nZZCQALK415ZoHqxF-77" value="" style="endArrow=none;html=1;rounded=0;entryX=0;entryY=0;entryDx=0;entryDy=0;exitX=0.5;exitY=0;exitDx=0;exitDy=0;" parent="WIyWlLk6GJQsqaUBKTNV-1" source="A29nZZCQALK415ZoHqxF-60" target="A29nZZCQALK415ZoHqxF-19" edge="1">
          <mxGeometry width="50" height="50" relative="1" as="geometry">
            <mxPoint x="480" y="475" as="sourcePoint" />
            <mxPoint x="480" y="235" as="targetPoint" />
            <Array as="points">
              <mxPoint x="380" y="410" />
              <mxPoint x="250" y="410" />
              <mxPoint x="250" y="80" />
            </Array>
          </mxGeometry>
        </mxCell>
        <mxCell id="A29nZZCQALK415ZoHqxF-78" value="" style="endArrow=none;html=1;rounded=0;exitX=0.5;exitY=0;exitDx=0;exitDy=0;entryX=0.25;entryY=0;entryDx=0;entryDy=0;" parent="WIyWlLk6GJQsqaUBKTNV-1" source="A29nZZCQALK415ZoHqxF-52" target="A29nZZCQALK415ZoHqxF-19" edge="1">
          <mxGeometry width="50" height="50" relative="1" as="geometry">
            <mxPoint x="210" y="430" as="sourcePoint" />
            <mxPoint x="260" y="210" as="targetPoint" />
            <Array as="points">
              <mxPoint x="110" y="360" />
              <mxPoint x="240" y="360" />
              <mxPoint x="240" y="50" />
              <mxPoint x="330" y="50" />
            </Array>
          </mxGeometry>
        </mxCell>
        <mxCell id="A29nZZCQALK415ZoHqxF-79" value="" style="endArrow=none;html=1;rounded=0;entryX=0.75;entryY=0;entryDx=0;entryDy=0;exitX=0.5;exitY=0;exitDx=0;exitDy=0;" parent="WIyWlLk6GJQsqaUBKTNV-1" source="A29nZZCQALK415ZoHqxF-19" target="A29nZZCQALK415ZoHqxF-0" edge="1">
          <mxGeometry width="50" height="50" relative="1" as="geometry">
            <mxPoint x="260" y="170" as="sourcePoint" />
            <mxPoint x="228.5999999999999" y="119.62" as="targetPoint" />
            <Array as="points">
              <mxPoint x="380" y="30" />
              <mxPoint x="180" y="30" />
            </Array>
          </mxGeometry>
        </mxCell>
        <mxCell id="A29nZZCQALK415ZoHqxF-80" value="0,n" style="text;html=1;align=center;verticalAlign=middle;resizable=0;points=[];autosize=1;strokeColor=none;fillColor=none;" parent="WIyWlLk6GJQsqaUBKTNV-1" vertex="1">
          <mxGeometry x="120" width="40" height="30" as="geometry" />
        </mxCell>
        <mxCell id="A29nZZCQALK415ZoHqxF-82" value="1,1" style="text;html=1;align=center;verticalAlign=middle;resizable=0;points=[];autosize=1;strokeColor=none;fillColor=none;" parent="WIyWlLk6GJQsqaUBKTNV-1" vertex="1">
          <mxGeometry x="670" width="40" height="30" as="geometry" />
        </mxCell>
        <mxCell id="A29nZZCQALK415ZoHqxF-83" value="1,n" style="text;html=1;align=center;verticalAlign=middle;resizable=0;points=[];autosize=1;strokeColor=none;fillColor=none;" parent="WIyWlLk6GJQsqaUBKTNV-1" vertex="1">
          <mxGeometry x="170" y="20" width="40" height="30" as="geometry" />
        </mxCell>
        <mxCell id="A29nZZCQALK415ZoHqxF-84" value="1,1" style="text;html=1;align=center;verticalAlign=middle;resizable=0;points=[];autosize=1;strokeColor=none;fillColor=none;" parent="WIyWlLk6GJQsqaUBKTNV-1" vertex="1">
          <mxGeometry x="340" y="20" width="40" height="30" as="geometry" />
        </mxCell>
        <mxCell id="A29nZZCQALK415ZoHqxF-86" value="1,1" style="text;html=1;align=center;verticalAlign=middle;resizable=0;points=[];autosize=1;strokeColor=none;fillColor=none;" parent="WIyWlLk6GJQsqaUBKTNV-1" vertex="1">
          <mxGeometry x="620" y="30" width="40" height="30" as="geometry" />
        </mxCell>
        <mxCell id="A29nZZCQALK415ZoHqxF-88" value="RESERVATION" style="text;html=1;align=center;verticalAlign=middle;resizable=0;points=[];autosize=1;strokeColor=none;fillColor=none;rotation=0;" parent="WIyWlLk6GJQsqaUBKTNV-1" vertex="1">
          <mxGeometry x="470" y="30" width="110" height="30" as="geometry" />
        </mxCell>
        <mxCell id="A29nZZCQALK415ZoHqxF-89" value="1,1" style="text;html=1;align=center;verticalAlign=middle;resizable=0;points=[];autosize=1;strokeColor=none;fillColor=none;" parent="WIyWlLk6GJQsqaUBKTNV-1" vertex="1">
          <mxGeometry x="480" y="80" width="40" height="30" as="geometry" />
        </mxCell>
        <mxCell id="A29nZZCQALK415ZoHqxF-90" value="0,n" style="text;html=1;align=center;verticalAlign=middle;resizable=0;points=[];autosize=1;strokeColor=none;fillColor=none;" parent="WIyWlLk6GJQsqaUBKTNV-1" vertex="1">
          <mxGeometry x="620" y="405" width="40" height="30" as="geometry" />
        </mxCell>
        <mxCell id="A29nZZCQALK415ZoHqxF-91" value="0,n" style="text;html=1;align=center;verticalAlign=middle;resizable=0;points=[];autosize=1;strokeColor=none;fillColor=none;" parent="WIyWlLk6GJQsqaUBKTNV-1" vertex="1">
          <mxGeometry x="290" y="40" width="40" height="30" as="geometry" />
        </mxCell>
        <mxCell id="A29nZZCQALK415ZoHqxF-93" value="0,n" style="text;html=1;align=center;verticalAlign=middle;resizable=0;points=[];autosize=1;strokeColor=none;fillColor=none;" parent="WIyWlLk6GJQsqaUBKTNV-1" vertex="1">
          <mxGeometry x="100" y="350" width="40" height="30" as="geometry" />
        </mxCell>
        <mxCell id="A29nZZCQALK415ZoHqxF-95" value="0,n" style="text;html=1;align=center;verticalAlign=middle;resizable=0;points=[];autosize=1;strokeColor=none;fillColor=none;" parent="WIyWlLk6GJQsqaUBKTNV-1" vertex="1">
          <mxGeometry x="470" y="448" width="40" height="30" as="geometry" />
        </mxCell>
        <mxCell id="A29nZZCQALK415ZoHqxF-96" value="Obtient" style="text;html=1;align=center;verticalAlign=middle;resizable=0;points=[];autosize=1;strokeColor=none;fillColor=none;" parent="WIyWlLk6GJQsqaUBKTNV-1" vertex="1">
          <mxGeometry x="400" width="60" height="30" as="geometry" />
        </mxCell>
        <mxCell id="A29nZZCQALK415ZoHqxF-97" value="PUBLIER" style="text;html=1;align=center;verticalAlign=middle;resizable=0;points=[];autosize=1;strokeColor=none;fillColor=none;rotation=0;" parent="WIyWlLk6GJQsqaUBKTNV-1" vertex="1">
          <mxGeometry x="235" y="20" width="70" height="30" as="geometry" />
        </mxCell>
        <mxCell id="A29nZZCQALK415ZoHqxF-98" value="PROPOSE" style="text;html=1;align=center;verticalAlign=middle;resizable=0;points=[];autosize=1;strokeColor=none;fillColor=none;rotation=0;" parent="WIyWlLk6GJQsqaUBKTNV-1" vertex="1">
          <mxGeometry x="149" y="340" width="80" height="30" as="geometry" />
        </mxCell>
        <mxCell id="A29nZZCQALK415ZoHqxF-100" value="SITUE" style="text;html=1;align=center;verticalAlign=middle;resizable=0;points=[];autosize=1;strokeColor=none;fillColor=none;rotation=90;" parent="WIyWlLk6GJQsqaUBKTNV-1" vertex="1">
          <mxGeometry x="640" y="328" width="60" height="30" as="geometry" />
        </mxCell>
        <mxCell id="A29nZZCQALK415ZoHqxF-101" value="TYPE" style="text;html=1;align=center;verticalAlign=middle;resizable=0;points=[];autosize=1;strokeColor=none;fillColor=none;rotation=90;" parent="WIyWlLk6GJQsqaUBKTNV-1" vertex="1">
          <mxGeometry x="235" y="340" width="50" height="30" as="geometry" />
        </mxCell>
        <mxCell id="A29nZZCQALK415ZoHqxF-85" value="0,n" style="text;html=1;align=center;verticalAlign=middle;resizable=0;points=[];autosize=1;strokeColor=none;fillColor=none;" parent="WIyWlLk6GJQsqaUBKTNV-1" vertex="1">
          <mxGeometry x="400" y="30" width="40" height="30" as="geometry" />
        </mxCell>
        <mxCell id="2gtgH7XLLV9unmcRsQni-4" value="1,1" style="text;html=1;align=center;verticalAlign=middle;resizable=0;points=[];autosize=1;strokeColor=none;fillColor=none;" parent="WIyWlLk6GJQsqaUBKTNV-1" vertex="1">
          <mxGeometry x="240" y="78" width="40" height="30" as="geometry" />
        </mxCell>
        <mxCell id="2gtgH7XLLV9unmcRsQni-5" value="0,n" style="text;html=1;align=center;verticalAlign=middle;resizable=0;points=[];autosize=1;strokeColor=none;fillColor=none;" parent="WIyWlLk6GJQsqaUBKTNV-1" vertex="1">
          <mxGeometry x="340" y="405" width="40" height="30" as="geometry" />
        </mxCell>
        <mxCell id="LvhPInU438T6JlCGGzXY-6" value="&lt;div&gt;label&lt;/div&gt;" style="whiteSpace=wrap;html=1;gradientColor=none;" parent="WIyWlLk6GJQsqaUBKTNV-1" vertex="1">
          <mxGeometry x="280" y="490" width="200" height="30" as="geometry" />
        </mxCell>
        <mxCell id="LvhPInU438T6JlCGGzXY-7" value="&lt;div&gt;label&lt;/div&gt;" style="whiteSpace=wrap;html=1;gradientColor=none;" parent="WIyWlLk6GJQsqaUBKTNV-1" vertex="1">
          <mxGeometry x="10" y="440" width="200" height="30" as="geometry" />
        </mxCell>
      </root>
    </mxGraphModel>
  </diagram>
</mxfile>
